<?xml version="1.0" standalone="no"?>
<!DOCTYPE svg PUBLIC "-//W3C//DTD SVG 20010904//EN"
 "http://www.w3.org/TR/2001/REC-SVG-20010904/DTD/svg10.dtd">
<svg version="1.0" xmlns="http://www.w3.org/2000/svg"
 width="1024.000000pt" height="1024.000000pt" viewBox="0 0 1024.000000 1024.000000"
 preserveAspectRatio="xMidYMid meet">

<g transform="translate(0.000000,1024.000000) scale(0.100000,-0.100000)"
fill="#000000" stroke="none">
<path d="M8695 10155 c-879 -70 -1621 -235 -2345 -520 -924 -365 -1733 -902
-2541 -1686 -134 -129 -455 -481 -594 -650 -292 -354 -602 -797 -810 -1159
-140 -242 -327 -631 -421 -875 -20 -49 -47 -119 -61 -155 -77 -194 -218 -655
-288 -940 -59 -239 -145 -653 -145 -696 0 -2 258 -4 574 -4 l573 0 17 83 c92
441 218 857 379 1252 42 101 60 144 119 275 41 92 172 347 240 469 270 483
621 961 1013 1381 840 900 1764 1494 2836 1824 495 153 1037 243 1627 271
l142 7 0 569 0 569 -77 -1 c-43 -1 -150 -7 -238 -14z"/>
<path d="M8788 5679 c-347 -55 -634 -147 -943 -304 -575 -291 -1072 -739
-1439 -1297 -115 -175 -235 -423 -274 -570 l-10 -38 1439 0 1439 0 0 303 c0
167 3 669 7 1115 l6 812 -54 -1 c-30 -1 -106 -9 -171 -20z"/>
<path d="M9149 3430 c-270 -42 -529 -286 -605 -570 -26 -98 -24 -282 4 -383
26 -91 85 -214 136 -280 l35 -46 -222 -229 c-122 -126 -228 -232 -234 -235
-10 -5 -13 32 -13 170 l0 176 63 66 c35 36 75 86 90 111 82 142 74 356 -20
497 -40 61 -126 142 -189 179 -126 74 -320 102 -474 70 -156 -33 -317 -140
-389 -260 -204 -340 53 -749 487 -773 l92 -6 0 -598 0 -599 170 0 170 0 2 321
3 321 275 -321 275 -321 203 0 203 0 -23 28 c-13 16 -144 170 -292 343 -149
173 -292 340 -319 372 l-50 58 29 32 c16 18 83 88 150 157 67 69 150 156 186
194 l64 68 69 -25 c153 -54 389 -67 538 -28 233 61 414 232 503 474 20 54 27
98 31 180 l6 107 -382 0 -381 0 0 -135 0 -135 205 -2 205 -3 -24 -50 c-60
-130 -211 -204 -390 -192 -164 11 -273 57 -375 157 -77 76 -114 144 -138 253
-33 155 13 313 127 431 102 107 221 156 380 158 179 2 273 -53 385 -225 9 -13
20 -10 85 20 41 20 103 48 138 64 34 15 62 31 62 35 0 14 -101 142 -152 191
-100 98 -213 149 -378 172 -115 16 -259 21 -321 11z m-1111 -684 c80 -37 159
-120 186 -195 24 -69 19 -187 -12 -247 -72 -140 -247 -223 -414 -195 -159 26
-280 130 -308 265 -24 118 11 227 100 309 81 75 151 98 285 94 85 -2 110 -7
163 -31z"/>
<path d="M140 2621 l0 -731 163 2 162 3 3 308 c2 243 5 307 15 307 7 0 101
-139 208 -310 l194 -310 178 0 c97 0 177 2 177 5 0 7 -52 91 -234 379 -87 137
-160 256 -163 263 -3 7 1 13 9 13 29 0 159 71 202 110 67 62 99 135 104 241 7
140 -28 230 -124 319 -112 105 -187 121 -586 127 l-308 5 0 -731z m569 450
c80 -16 137 -76 135 -146 -2 -99 -65 -135 -250 -143 l-124 -5 0 152 0 151 98
0 c53 -1 117 -5 141 -9z"/>
<path d="M2507 2980 c-160 -29 -338 -188 -408 -365 -20 -51 -23 -77 -23 -175
0 -100 4 -124 27 -182 35 -92 84 -164 147 -222 212 -189 584 -194 774 -9 106
103 170 244 164 359 l-3 59 -265 0 -265 0 -3 -92 -3 -93 156 0 156 0 -15 -27
c-24 -46 -78 -95 -136 -122 -75 -36 -215 -36 -305 -1 -88 34 -187 135 -210
215 -20 67 -22 165 -4 223 26 88 123 183 224 221 69 26 181 28 250 5 47 -17
130 -86 153 -128 9 -19 15 -17 106 30 53 27 96 52 96 56 0 4 -22 35 -48 69
-63 83 -140 134 -235 158 -87 23 -261 34 -330 21z"/>
<path d="M6470 2955 c-36 -8 -103 -34 -150 -57 -214 -107 -327 -313 -291 -529
42 -255 266 -433 562 -447 189 -8 339 43 462 157 117 110 167 217 167 359 0
148 -41 244 -149 353 -122 122 -266 179 -451 178 -47 0 -114 -7 -150 -14z
m330 -211 c125 -60 192 -156 198 -284 5 -100 -21 -172 -89 -241 -150 -154
-406 -155 -569 -3 -68 63 -94 128 -94 229 1 97 25 159 87 223 80 83 163 113
302 109 88 -2 108 -6 165 -33z"/>
<path d="M1370 2430 l0 -510 21 0 c13 0 19 -5 16 -12 -6 -16 -154 -365 -249
-588 -127 -298 -258 -610 -258 -615 0 -3 71 -4 157 -3 l157 3 64 147 65 148
326 0 326 0 61 -148 62 -147 156 -3 c90 -1 156 1 156 7 0 9 -64 163 -285 681
-62 146 -132 312 -156 370 -24 58 -49 116 -56 130 -12 23 -11 25 12 28 25 3
25 5 25 98 l0 94 -195 0 -195 0 0 135 0 135 195 0 196 0 -3 93 -3 92 -192 3
-193 2 0 90 0 90 195 0 195 0 0 95 0 95 -300 0 -300 0 0 -510z m404 -902 c54
-128 101 -239 103 -245 4 -10 -41 -13 -206 -13 -116 0 -211 3 -211 8 -1 13
203 482 210 482 3 0 50 -105 104 -232z"/>
<path d="M5230 2434 l0 -506 243 4 c221 4 247 6 298 26 150 59 228 214 180
356 -18 51 -89 128 -141 151 -22 10 -40 21 -40 24 0 3 15 18 34 33 67 53 95
163 63 241 -19 44 -63 94 -109 123 -68 43 -136 54 -340 54 l-188 0 0 -506z
m375 312 c40 -17 55 -42 55 -94 0 -65 -55 -102 -149 -102 l-61 0 0 105 0 105
60 0 c33 0 76 -6 95 -14z m35 -388 c91 -28 134 -130 81 -192 -31 -35 -69 -46
-169 -49 l-97 -2 -3 119 c-1 66 0 126 3 134 4 12 20 13 78 8 39 -4 88 -12 107
-18z"/>
<path d="M3290 2420 l0 -510 295 0 295 0 0 95 0 95 -192 2 -193 3 -3 133 -3
132 196 0 195 0 0 95 0 95 -195 0 -195 0 0 90 0 90 195 0 195 0 0 95 0 95
-295 0 -295 0 0 -510z"/>
<path d="M4040 2420 l0 -510 125 0 125 0 2 330 3 330 270 -330 270 -330 123 0
122 0 0 510 0 510 -125 0 -125 0 -2 -335 -3 -335 -205 251 c-113 138 -236 289
-273 335 l-68 84 -120 0 -119 0 0 -510z"/>
<path d="M3702 1735 c-223 -49 -406 -226 -443 -430 -36 -197 63 -396 258 -519
119 -74 327 -105 483 -72 289 61 485 308 450 568 -13 91 -25 128 -68 194 -83
127 -230 228 -377 259 -86 18 -219 18 -303 0z m241 -180 c66 -11 127 -43 187
-101 74 -71 100 -132 100 -238 0 -61 -5 -83 -30 -134 -52 -103 -148 -170 -279
-194 -163 -30 -349 59 -418 201 -24 48 -28 68 -27 136 0 67 5 89 29 138 51
104 157 178 281 196 58 8 82 8 157 -4z"/>
<path d="M5200 1240 l0 -510 125 0 125 0 0 225 0 225 208 -2 207 -3 3 -223 2
-222 120 0 120 0 0 510 0 510 -120 0 -120 0 0 -190 0 -190 -210 0 -210 0 0
190 0 190 -125 0 -125 0 0 -510z"/>
<path d="M4390 1645 l0 -95 115 0 115 0 0 -420 0 -420 125 0 125 0 0 420 0
420 115 0 115 0 0 95 0 95 -355 0 -355 0 0 -95z"/>
<path d="M6300 1235 l0 -505 300 0 300 0 0 90 0 90 -192 2 -193 3 -3 133 -3
132 196 0 195 0 0 95 0 95 -195 0 -195 0 0 90 0 90 195 0 195 0 0 95 0 95
-300 0 -300 0 0 -505z"/>
<path d="M7100 1235 l0 -505 295 0 295 0 0 90 0 90 -192 2 -193 3 0 130 0 130
193 3 192 2 0 95 0 95 -195 0 -196 0 3 88 3 87 193 3 192 2 0 95 0 95 -295 0
-295 0 0 -505z"/>
<path d="M2530 1215 l0 -505 115 0 115 0 0 215 0 215 78 0 c254 1 395 102 396
285 1 88 -16 137 -66 191 -76 82 -170 104 -450 104 l-188 0 0 -505z m432 299
c63 -33 75 -94 29 -146 -29 -33 -31 -33 -130 -36 l-101 -4 0 99 c0 55 3 103 8
107 11 12 163 -4 194 -20z"/>
<path d="M1553 288 c3 -7 15 -55 27 -105 l22 -93 579 0 578 0 -13 43 c-7 23
-23 70 -36 104 l-23 63 -569 0 c-452 0 -569 -3 -565 -12z"/>
<path d="M6257 253 c15 -27 43 -75 63 -108 l37 -60 94 -3 c52 -2 639 0 1306 3
l1211 7 5 22 c3 11 15 57 26 101 11 44 20 81 21 83 0 1 -628 2 -1395 2 l-1396
0 28 -47z"/>
</g>
</svg>
