<?xml version="1.0" encoding="UTF-8"?><svg id="uuid-bbcba570-ba00-4d8e-893d-a8d323b235d8" xmlns="http://www.w3.org/2000/svg" xmlns:xlink="http://www.w3.org/1999/xlink" viewBox="0 0 327.92 232.92"><defs><style>.uuid-bd63aa05-0815-4d5e-a870-2612f7ffd003,.uuid-026e6fc1-0aec-4910-8de6-cdad2f26f34b,.uuid-08ddb141-3021-486a-af75-9b781d536d44,.uuid-c4a71174-52c0-4d01-9f7f-4d3434213ff6{opacity:.1;}.uuid-1c7cc438-9fc8-41bf-9bcc-8dcff441e058{fill:#efc8c4;}.uuid-bfa577c2-81dc-4be9-8c9d-c6b99d6517d2{fill:#ffb0b1;}.uuid-f677e2e2-bfd8-407d-965d-3a0d413065b0,.uuid-c4a71174-52c0-4d01-9f7f-4d3434213ff6{fill:#fff;}.uuid-d931f6f8-ef39-4373-a827-cbc271078e0c{fill:#9d9cb5;}.uuid-913f9f8c-1d4d-4930-ad96-de167175bb93{fill:#cf6f80;}.uuid-e1545491-cc31-4899-ae57-9af3ec08ee08{fill:#be8b87;}.uuid-ec28c6fd-401a-4d51-a28a-91de38ee4862{fill:#dce7ff;}.uuid-71d67c7e-7152-4b4b-b3a2-2b6bbd490f11{fill:#c7daf5;}.uuid-40407c94-7320-4d28-b150-8f315f423c64{fill:#1d2366;}.uuid-c55d6aad-f1ea-4087-841a-0a2da6107d93{fill:#3f3d56;}.uuid-f33ddb76-609e-4551-a309-6c6df678322f{fill:#2a2ac0;}.uuid-71e6e451-0629-438f-bfab-bd0e69ba026f{fill:#591d4b;}.uuid-7beb8a50-62f2-437a-ad37-0465efa78e81{fill:#535461;}.uuid-1d16c26f-7f02-4ecb-9cea-50826d16828d{fill:#727a9c;}.uuid-bcaf9e35-7d4a-48fc-b9f7-570f4f2a9375{fill:#512e4e;}.uuid-6619e994-c51d-4e1e-b8aa-49b7d111e5ee{fill:url(#uuid-d2303179-12c0-433e-b122-e66f2997642f);}.uuid-026e6fc1-0aec-4910-8de6-cdad2f26f34b,.uuid-2bbfd61e-8d0f-4fa6-9f7f-38f9bded8a53,.uuid-08ddb141-3021-486a-af75-9b781d536d44,.uuid-c4a71174-52c0-4d01-9f7f-4d3434213ff6{isolation:isolate;}.uuid-2bbfd61e-8d0f-4fa6-9f7f-38f9bded8a53{opacity:.03;}.uuid-82cb5938-02fa-4a42-9a60-6110644da262{fill:none;stroke:#535461;stroke-miterlimit:10;stroke-width:2px;}.uuid-08ddb141-3021-486a-af75-9b781d536d44{fill:#6c63ff;}.uuid-4b0c72d9-d97c-497a-976e-31420d9ac312{fill:url(#uuid-759f3713-7009-444a-a85e-a04d4ae5b930);}</style><linearGradient id="uuid-d2303179-12c0-433e-b122-e66f2997642f" x1="-282.2" y1="788.77" x2="-282.2" y2="789.77" gradientTransform="translate(17381.05 137747.66) scale(61.18 -174.36)" gradientUnits="userSpaceOnUse"><stop offset="0" stop-color="gray" stop-opacity=".25"/><stop offset=".54" stop-color="gray" stop-opacity=".12"/><stop offset="1" stop-color="gray" stop-opacity=".1"/></linearGradient><linearGradient id="uuid-759f3713-7009-444a-a85e-a04d4ae5b930" x1="-282.48" y1="788.94" x2="-282.48" y2="789.94" gradientTransform="translate(19195.69 125864.28) scale(67.01 -159.26)" xlink:href="#uuid-d2303179-12c0-433e-b122-e66f2997642f"/></defs><g id="uuid-b0360f46-9db2-4d56-8486-631836ecccec"><rect id="uuid-bb56343b-fea5-4efe-b95a-d73872f952c6" class="uuid-08ddb141-3021-486a-af75-9b781d536d44" x="192.65" y="51.33" width="17.83" height="39.49"/><rect id="uuid-b2b5e90f-778e-4f92-8497-3a653b3a7970" class="uuid-08ddb141-3021-486a-af75-9b781d536d44" x="200.92" y="62.31" width="9.55" height="12.38"/><rect id="uuid-6e0e231c-bd7d-47de-bce6-3f3fd802346e" class="uuid-08ddb141-3021-486a-af75-9b781d536d44" x="59.49" y="133.16" width="8.06" height="8.06"/><rect id="uuid-17812871-9943-4f2f-957a-f1a2bfc061b6" class="uuid-08ddb141-3021-486a-af75-9b781d536d44" x="264.74" y="95.83" width="8.06" height="8.06"/><rect id="uuid-daa7fdfa-d431-4258-8d2c-4e7c768deae1" class="uuid-08ddb141-3021-486a-af75-9b781d536d44" x="264.74" y="115.71" width="8.06" height="8.06"/><rect id="uuid-546ef099-fba3-47de-9a6e-ed0695b2e963" class="uuid-08ddb141-3021-486a-af75-9b781d536d44" x="264.74" y="135.58" width="8.06" height="8.06"/><rect id="uuid-8f555da6-5c0b-48f6-9f10-85d2ea071ebe" class="uuid-08ddb141-3021-486a-af75-9b781d536d44" x="264.74" y="155.46" width="8.06" height="8.06"/><path id="uuid-b719ebd8-b855-4a5e-bea4-65df33373938" class="uuid-08ddb141-3021-486a-af75-9b781d536d44" d="M25.76,147.84c.07,.09,.14,.19,.21,.28h1.5v1.93c.16,.19,.32,.39,.49,.57v-2.51h2.27v4.04h-.92c.09,.09,.18,.19,.28,.28h17.24v-4.6H25.76Zm7.2,4.32h-2.27v-4.03h2.27v4.03Zm2.75,0h-2.27v-4.03h2.27v4.03Zm2.75,0h-2.27v-4.03h2.27v4.03Zm2.74,0h-2.27v-4.03h2.27v4.03Zm2.74,0h-2.27v-4.03h2.27v4.03Zm2.74,0h-2.27v-4.03h2.27v4.03Z"/><path id="uuid-d7bc9dd6-695d-4797-9f8c-01d387cf1904" class="uuid-08ddb141-3021-486a-af75-9b781d536d44" d="M40.89,161.26c.26,.15,.52,.28,.79,.43v-.14h2.26v1.28l.48,.22v-1.5h2.27v2.45s.09,.04,.14,.05v-2.79h-5.93Z"/><path id="uuid-27a3b77e-3ddd-418f-840e-3f2a6e1a7944" class="uuid-6619e994-c51d-4e1e-b8aa-49b7d111e5ee" d="M144.94,103.79s-1.12-.16-1.12-1.78c-.12-1.58-.39-3.14-.8-4.66h0s-.69-5.29-1.65-6.13-2.18-5.76-2.18-5.76c-.06-1.11-.27-2.2-.64-3.25-.73-1.28-1.35-2.61-1.86-3.99-.85-2.01-4.41-3.4-4.41-3.4,0,0-6.43-3.73-8.25-4.95h0c-.17-.1-.32-.22-.46-.35-.32-.42-1.7-.43-1.7-.43-.16-.96-.27-1.93-.33-2.91,0-.1,0-.2-.01-.31,2.03-1.2,3.56-3.09,4.31-5.33,.03-.11,.06-.22,.09-.33,.25-.08,.45-.26,.55-.5,.1-.38,.23-.76,.37-1.13,.3-.36,.65-.67,1.05-.92,.83-.86,1.23-2.04,1.09-3.23-.03-.95-.18-1.91-.12-2.85l.02-.24c.02-.14,.04-.28,.06-.42,.14-.7,.44-1.37,.61-2.06,.22-.69,.14-1.45-.21-2.08-.58-.88-1.79-1.06-2.85-1.15-1.2-.1-2.28,.03-3.05-.97-.36-.52-.77-1.01-1.21-1.46-.16-.15-1.7-1.09-1.7-1.15-1.5-.7-3.21-.83-4.8-.37-.8,.23-1.55,.61-2.36,.8-1.75,.41-3.76-.03-5.24,.97-.78,.63-1.39,1.43-1.79,2.35-.38,.72-.76,1.45-1.15,2.17-.68,1.16-1.2,2.41-1.53,3.71-.05,.29-.09,.58-.1,.87h0v.46c0,.09,0,.19,.02,.28,.02,.09,.01,.12,.02,.18s.02,.19,.04,.28,.05,.25,.08,.37c.01,.05,.03,.1,.05,.16,.03,.1,.06,.19,.1,.28,.02,.05,.04,.1,.06,.15,.04,.1,.09,.19,.14,.28,.02,.04,.04,.08,.06,.11,.08,.13,.17,.26,.26,.38,.61,.76,1.5,1.24,2.16,1.95v.32c.07,3.21,1.72,6.17,4.42,7.92,0,.11,.01,.22,.02,.33,.06,.84,.04,1.69-.03,2.52-.23-.28-.58-.43-.94-.42-.12,0-.24,0-.36,.03l-.02-.02h0v.03c-.62,.15-1.39,.8-2.12,2.65,0,0-2.23,2.52-3.93,2.41s-6,2.62-6,2.62c0,0-4.2,2.73-5.1,5.5-.5,1.57-1.11,3.12-1.81,4.61l-5.19,10.7h0l-.96,8.49c.22,1.44,.36,2.89,.42,4.35-.1,.58,2.18,5.76,2.18,5.76,0,0,7.55,13.26,10.63,13.94l.22-.16c.13,.07,.27,.12,.42,.16l.64-.45c.04,.5,.02,1-.05,1.5-.42,1.31,.16,9.85,.9,11.53s.48,23.63,.48,23.63l-.1,1.94c0,.06,.01,.11,.03,.17l-.03,.46,.08,.04c.08,.61,.05,1.24-.08,1.85-.21,1.07-.34,2.16-.37,3.25,0,0-2.12,13.57-1.12,16.29s1.86,5.71,1.86,5.71c0,0,1.06,3.4,.05,3.98s-3.89,1.56-3.3,2.97c.54,1.31,2.58,4.82,2.89,5.33l-.02,.27-.42,4.51c.07,.6,.23,1.18,.48,1.72,.47,1.24,1.71,2.01,3.03,1.89,.28-.02,.61-.05,.93-.1,2.34-.39,4.65-.99,6.89-1.79-.2-.13-.38-.27-.54-.45h0c-.31-.3-.48-.71-.47-1.13,.05-.82-1.49-4.74-1.88-5.7-.06-.14-.09-.22-.09-.22,0,0,3.51-3.67,2.92-6.92,0,0-3.88-2.27-2.6-3.51,1.31-1.51,2.5-3.12,3.56-4.82,0,0,.1-13.36,0-15.36-.11-1.38-.04-2.78,.2-4.15,.04-.21,.09-.41,.15-.61,1.77,.26,3.55,.4,5.34,.4,.65,0,1.32,0,1.98-.04,0,.19,0,.39,.03,.61,.15,3.31,.42,9.11,.65,11.27,.32,3.09,2.07,11.42,2.07,11.42,0,0-3.35,2.15,.58,7.44,.03,.74-.06,1.48-.26,2.2h0c-.28,.91-.5,1.83-.67,2.77-.21,.83-.2,1.7,.03,2.53,.64,1.25,4.46,1.15,4.46,1.15h0l.09-.02c1.46-.15,2.92,.29,4.05,1.22,1.45,1.17,6.97,.65,9.96,.28,1.17-.15,1.95-.28,1.95-.28,.04-.13,.05-.27,.04-.41h0c-.03-.73-.61-2.34-4.51-3.78,0,0-3.67-2.46-3.62-4.61h-.5c.17-.01,.34-.01,.51,0,0,0-1.44-5.24-.85-5.67s-1.17-6.23-1.17-6.23c0,0-1.01-9.75-1.06-10.43,0-.59,.09-1.17,.26-1.73l-.26-5.34s-.05-1.78,0-2.36c0-.5-.05-1-.12-1.5-.02-.2-.05-.4-.08-.61,1.37-.35,2.27-.67,2.27-.67l-.16-18.6c1.17-2.27,1.38-7.24,1.38-10.77,0-2.27-.1-3.94-.1-3.94l1.6-2.6s.37-3.12-.21-3.8c-.22-.27-.18-.66,.07-.89,.11-.09,.23-.17,.35-.24,0,0-.02-.02-.04-.06,.11-.09,.23-.18,.35-.25,0,0-.57-.88-.06-1.25,.48,.32,.9,.57,1.22,.77-.02,.21-.05,.33-.05,.33l.14-.28,.5,.28s2.5-4.98,2.45-5.71,1.7-3.83,1.7-3.83c.11-.88,.53-1.69,1.17-2.3,.96-.68,.74-5.61,.74-5.61,.11-1.24,.41-2.46,.9-3.62,.61-1.06-.6-2.47-.6-2.47Zm-47.82-2.18l.05,1.19-.49-.79,.44-.4Z"/><path id="uuid-7711760b-c0b8-4c91-9705-deadeb88f601" class="uuid-f677e2e2-bfd8-407d-965d-3a0d413065b0" d="M138.69,125.16l-.61,2.61s-4.9-2.5-5.79-5.68,1.48-4.39,1.48-4.39l4.57,1.93,.35,5.52Z"/><path id="uuid-adef3c58-ea38-4562-a986-f1ea599897d0" class="uuid-026e6fc1-0aec-4910-8de6-cdad2f26f34b" d="M138.69,125.16l-.61,2.61s-4.9-2.5-5.79-5.68,1.48-4.39,1.48-4.39l4.57,1.93,.35,5.52Z"/><path id="uuid-6b855510-ab6f-45a6-bbf6-c715dbab66f8" class="uuid-f677e2e2-bfd8-407d-965d-3a0d413065b0" d="M111.18,213.89c-2.47,.91-5.04,1.54-7.65,1.88-1.3,.11-2.51-.66-2.97-1.88-.24-.54-.4-1.12-.47-1.71l.4-4.49,.21-2.39,6.62-1.72,.94,2.87,.09,.22c.38,.96,1.89,4.85,1.84,5.67,0,.42,.16,.82,.46,1.12,.15,.17,.33,.32,.52,.45Z"/><path id="uuid-f833431d-19b8-4ebb-b7dd-8c3e70d95f7e" class="uuid-f677e2e2-bfd8-407d-965d-3a0d413065b0" d="M142.15,211.6c.01,.14,0,.27-.04,.41,0,0-9.7,1.62-11.68,0-1.13-.96-2.61-1.39-4.08-1.2,0,0-3.75,.1-4.38-1.13-.23-.82-.24-1.69-.03-2.52,.16-.93,.38-1.85,.66-2.75l.15-.12,.89-.72,10.45-.31h.08c-.05,2.14,3.55,4.59,3.55,4.59,3.82,1.42,4.39,3.02,4.43,3.75Z"/><path id="uuid-76bde97d-c6c6-456f-91da-0341b429c38e" class="uuid-026e6fc1-0aec-4910-8de6-cdad2f26f34b" d="M142.15,211.6c0,.14,0,.27-.04,.41,0,0-9.69,1.62-11.68,0-1.13-.96-2.61-1.39-4.08-1.2,0,0-3.76,.1-4.38-1.13-.23-.82-.24-1.69-.03-2.52,1.45,.15,3.73,.5,4.62,1.36,1.39,1.37,3.15,2.31,5.06,2.72,1.1,.07,7.7,.28,10.53,.36Z"/><path id="uuid-2af16cfe-5417-414d-9e9a-55dd89dfd3c4" class="uuid-026e6fc1-0aec-4910-8de6-cdad2f26f34b" d="M111.18,213.89c-2.47,.91-5.04,1.54-7.65,1.88-1.3,.11-2.52-.66-2.97-1.88,1.15,.39,2.75,.8,3.6,.42,1-.44,4.53-.73,6.52-.85,.15,.16,.32,.31,.5,.44Z"/><path id="uuid-85a2924b-8c67-4668-9245-1daae91b858b" class="uuid-913f9f8c-1d4d-4930-ad96-de167175bb93" d="M117.91,79.61c-3.74-1.45-8.55-6.26-7.35-8.5,.27-.57,.43-1.18,.47-1.8,.08-.85,.09-1.7,.03-2.55-.08-1.39-.25-2.78-.5-4.15,0,0,11.68,.26,11,1.98-.2,.77-.26,1.57-.18,2.36,.05,.98,.2,2.09,.34,3.03,.2,1.29,.41,2.27,.41,2.27,0,0-.71,1-1.13,1.05s2.27,8.38-3.09,6.31Z"/><path id="uuid-1f032cc8-c7e0-49a4-abff-e60215cf7c9e" class="uuid-026e6fc1-0aec-4910-8de6-cdad2f26f34b" d="M108.35,206.65l-.09,.1c-3.49-4.22-7.71,1.04-7.71,1.04l-.06-.11,.21-2.39,6.62-1.72,.94,2.87,.09,.21Z"/><path id="uuid-74ee05c2-7abc-4348-b9cd-9634578fcf4a" class="uuid-026e6fc1-0aec-4910-8de6-cdad2f26f34b" d="M134.17,203.56s-2.55-.05-3.91,1.15-7.93,.26-7.65,0c.08-.13,.13-.28,.15-.43l.89-.72,10.45-.31c.04,.19,.07,.31,.07,.31Z"/><path id="uuid-68259349-7c86-443c-b1fd-11c8e582ac21" class="uuid-f33ddb76-609e-4551-a309-6c6df678322f" d="M112.7,170.41c-.19,.47-.33,.96-.43,1.45-.24,1.36-.3,2.75-.2,4.13,.1,1.98,0,15.28,0,15.28-1.05,1.68-2.21,3.28-3.49,4.79-1.25,1.25,2.55,3.49,2.55,3.49,.57,3.23-2.87,6.88-2.87,6.88-3.49-4.22-7.71,1.04-7.71,1.04,0,0-2.3-3.97-2.87-5.38s2.24-2.4,3.23-2.97-.04-3.97-.04-3.97c0,0-.84-2.97-1.83-5.68s1.09-16.21,1.09-16.21c.04-1.09,.16-2.17,.37-3.23,.13-.6,.16-1.22,.08-1.84-.02-.21-.04-.38-.05-.5s-.03-.17-.03-.17l.04-.07,1.42-2.64s11.42,3.94,10.74,5.6Z"/><path id="uuid-c5b969e8-868d-4352-b05f-d580d5c8976c" class="uuid-f33ddb76-609e-4551-a309-6c6df678322f" d="M134.17,203.25s-2.55-.05-3.91,1.13-7.93,.26-7.65,0,.26-2.19,.26-2.19c-3.86-5.27-.57-7.4-.57-7.4,0,0-1.72-8.29-2.04-11.36-.22-2.15-.49-7.92-.63-11.22-.06-1.42-.1-2.39-.1-2.39l3.15-.64,.4-.08,7.6-1.52s.21,1.42,.35,2.58c.07,.49,.11,.99,.12,1.49-.05,.57,0,2.34,0,2.34l.26,5.32c-.17,.56-.26,1.14-.26,1.72,.05,.68,1.04,10.37,1.04,10.37,0,0,1.72,5.79,1.13,6.2s.83,5.64,.83,5.64Z"/><path id="uuid-58ad2760-84c4-4957-8407-4b42d00a43b5" class="uuid-026e6fc1-0aec-4910-8de6-cdad2f26f34b" d="M121.56,64.6c-.2,.77-.26,1.57-.18,2.36-3.19,1.92-7.2,1.85-10.32-.19-.08-1.39-.25-2.78-.5-4.15,0,0,11.68,.26,11,1.98Z"/><path id="uuid-6eeb70d5-e613-4217-b2fc-b5c76d48126b" class="uuid-913f9f8c-1d4d-4930-ad96-de167175bb93" d="M126.07,58.34c0,1.02-.16,2.04-.48,3.01-1.67,5.09-7.16,7.86-12.25,6.18-3.89-1.28-6.56-4.86-6.67-8.96v-.23c-.15-5.35,4.06-9.82,9.42-9.97,5.35-.15,9.82,4.06,9.97,9.42,0,.19,0,.37,0,.56h0Z"/><path id="uuid-15206099-15c0-4594-bec2-a2cf5f6fd643" class="uuid-026e6fc1-0aec-4910-8de6-cdad2f26f34b" d="M117.91,79.62c-3.74-1.45-8.55-6.26-7.35-8.5,.27-.57,.43-1.18,.47-1.8l5.12,4.21,3.17,2.6,2.41-6.13c.2,1.29,.41,2.27,.41,2.27,0,0-.71,1-1.13,1.05s2.28,8.37-3.09,6.3Z"/><path id="uuid-e6972664-d908-4106-84d2-685aeee22c32" class="uuid-f33ddb76-609e-4551-a309-6c6df678322f" d="M131.15,98.21l-4.27,71.83-5.58,.37-14.44-41.65,2.37-49.45,.5-10.45,6.42,5.27,3.17,2.6,2.48-6.31,4.61,4.02,4.74,23.77Z"/><path id="uuid-a29c1b7f-0eb3-4b4c-96ca-1e1e3f8a22f1" class="uuid-026e6fc1-0aec-4910-8de6-cdad2f26f34b" d="M112.7,170.41c-.19,.47-.33,.96-.43,1.45-4.06-.63-8-1.86-11.69-3.65l-.08-.04,.03-.46v-.24s1.43-2.64,1.43-2.64c0,0,11.42,3.91,10.74,5.57Z"/><path id="uuid-0a012b87-5ee6-4d16-b5e2-8510abd384af" class="uuid-026e6fc1-0aec-4910-8de6-cdad2f26f34b" d="M122.76,171.87c-1.04,.18-2.08,.3-3.13,.36-.06-1.42-.1-2.39-.1-2.39l3.15-.64,.08,2.67Z"/><path id="uuid-b268b05d-3fef-4f42-96a5-950352374f66" class="uuid-026e6fc1-0aec-4910-8de6-cdad2f26f34b" d="M131.03,170.17c-2.57,.73-5.25,.98-7.91,.74l-.04-1.8,7.6-1.52s.21,1.41,.35,2.58Z"/><path id="uuid-9a3dd6aa-f9ee-4fe1-8ef1-1821cac2d66b" class="uuid-026e6fc1-0aec-4910-8de6-cdad2f26f34b" d="M123.07,171.25c-11.62,1.98-22.26-3.7-22.26-3.7l.1-1.93s.26-21.84-.47-23.52-1.3-10.17-.89-11.47-1.51-20.85-1.51-20.85l-.31-7.93-11.41-4.62,5.1-10.63c.69-1.49,1.28-3.02,1.77-4.59,.89-2.76,5-5.47,5-5.47,0,0,4.22-2.71,5.89-2.61s3.86-2.4,3.86-2.4c1.61-4.12,3.08-2.25,3.08-2.25,0,.2-.04,.41-.08,.61-.57,4.52,9.16,18.8,9.3,19.05h0l.93,22.57,.94,28.57,.96,31.18Z"/><path id="uuid-59366f3e-9520-4dd1-bb7d-3d67dd221185" class="uuid-f677e2e2-bfd8-407d-965d-3a0d413065b0" d="M122.76,171.25c-11.62,1.98-22.26-3.7-22.26-3.7l.1-1.93s.26-21.84-.47-23.52-1.3-10.17-.88-11.47-1.51-20.85-1.51-20.85l-.32-7.93-11.41-4.64,5.1-10.63c.69-1.49,1.28-3.02,1.77-4.59,.88-2.76,5-5.47,5-5.47,0,0,4.22-2.71,5.89-2.61s3.86-2.4,3.86-2.4c1.62-4.12,3.4-2.25,3.4-2.25,0,.2-.17,.28-.08,.61,1.25,4.38,8.85,18.8,8.99,19.05h0l.94,22.57,.94,28.57,.95,31.19Z"/><path id="uuid-e476aa8b-a883-48a9-9c50-d4947d40bdc8" class="uuid-026e6fc1-0aec-4910-8de6-cdad2f26f34b" d="M119.63,89.56c-1.25-.52-7.87-8.08-7.87-8.08v-1.72c-.24-.57-1.67-.22-2.83,.18l.5-10.45,.57,.47c1.24,4.38,9.49,19.35,9.64,19.6Z"/><path id="uuid-cdf24da4-71ac-4f8e-87f2-89c0fb1193ea" class="uuid-f677e2e2-bfd8-407d-965d-3a0d413065b0" d="M119.94,88.93c-1.25-.52-7.87-8.08-7.87-8.08v-1.72c-.24-.57-1.67-.22-2.83,.18l.5-10.45,.57,.47c1.25,4.38,9.5,19.35,9.64,19.6Z"/><path id="uuid-075d9ec8-248f-4147-8bb1-5d25efc07c6e" class="uuid-026e6fc1-0aec-4910-8de6-cdad2f26f34b" d="M100.81,126.62c.16,0,8.08-.83,8.08-.83,0,0,4.8,9.43,4.48,11.73s-.88,4.33-2.81,3.97-10.39,.28-10.39,.28l.64-15.15Z"/><path id="uuid-e812fc15-c0cb-4f2f-a5f8-13e3f3ee8ef4" class="uuid-f677e2e2-bfd8-407d-965d-3a0d413065b0" d="M100.5,126c.16,0,8.08-.83,8.08-.83,0,0,4.79,9.44,4.48,11.73s-.89,4.33-2.81,3.97-10.39,.28-10.39,.28l.64-15.15Z"/><path id="uuid-00c655a5-d03f-4989-9306-d7794435310d" class="uuid-913f9f8c-1d4d-4930-ad96-de167175bb93" d="M106.47,121.57s7.27,3.91,7.43,5.1-3.7-.52-4.53-.73c-.55-.13-1.11-.22-1.67-.26l-5.56,.15,4.33-4.26Z"/><circle id="uuid-d8e9fbf8-7133-4cfc-9db5-eb70b0c40cca" class="uuid-026e6fc1-0aec-4910-8de6-cdad2f26f34b" cx="117.6" cy="89.28" r=".76"/><circle id="uuid-d617dd75-737f-425c-bd27-3eaadf9a67d4" class="uuid-c55d6aad-f1ea-4087-841a-0a2da6107d93" cx="117.6" cy="88.97" r=".76"/><circle id="uuid-c48daf31-42b1-4a4a-9e15-d6948f600c8e" class="uuid-026e6fc1-0aec-4910-8de6-cdad2f26f34b" cx="119.01" cy="122.4" r=".76"/><circle id="uuid-d0fe89f0-9afb-4e54-ba75-8ad4fa48207e" class="uuid-c55d6aad-f1ea-4087-841a-0a2da6107d93" cx="119.01" cy="122.09" r=".76"/><circle id="uuid-57bc2f81-11ec-4908-8260-f1a5c2d9ebcb" class="uuid-026e6fc1-0aec-4910-8de6-cdad2f26f34b" cx="118.36" cy="105.84" r=".76"/><circle id="uuid-00ef0833-2ff7-4bb3-a6a6-09ee8bf9557a" class="uuid-c55d6aad-f1ea-4087-841a-0a2da6107d93" cx="118.36" cy="105.53" r=".76"/><path id="uuid-db49429d-7836-4e0c-b9f1-18f6d33d0092" class="uuid-f677e2e2-bfd8-407d-965d-3a0d413065b0" d="M136,125.52s.52,.78,0,1.15,.05,1.25,.05,1.25c0,0-1.3,.76-.73,1.45s.21,3.78,.21,3.78l-1.56,2.59s.09,1.67,.1,3.92c0,3.52-.21,8.47-1.35,10.72l.16,18.51s-5.48,2-10.06,1.39l-.68-29.7s.99-16.84,1.36-20.07c.21-1.68,.3-3.37,.26-5.06-.06-2.48-.29-4.95-.68-7.4,0,0-.57-10.16-.62-12.98-.03-1.35,.05-5.27,.12-9.01,.09-4.08,.19-7.93,.19-7.93l-1.04-8.18s1.03-.1,1.35,.31c.14,.13,.29,.25,.45,.35h0c1.79,1.21,8.09,4.92,8.09,4.92,0,0,3.49,1.39,4.33,3.38,.51,1.37,1.12,2.69,1.82,3.97,.35,1.04,.56,2.13,.63,3.23,0,0,1.2,4.9,2.14,5.73s1.62,6.11,1.62,6.11l-8.29,6.52s-.73,10.84-.88,11.26,3.02,9.79,3.02,9.79Z"/><path id="uuid-82b686d3-0f08-4aa6-a8ee-bf3736108385" class="uuid-f677e2e2-bfd8-407d-965d-3a0d413065b0" d="M136.31,125.52s.52,.78,0,1.15,.05,1.25,.05,1.25c0,0-1.29,.77-.73,1.46s.21,3.78,.21,3.78l-1.56,2.59s.09,1.67,.1,3.92c0,3.52-.21,8.47-1.35,10.72l.16,18.51s-5.49,2-10.07,1.39l-.68-29.7s.99-16.84,1.36-20.07c.21-1.68,.3-3.37,.26-5.06-.06-2.48-.29-4.95-.68-7.4,0,0-.57-10.16-.63-12.98-.02-1.35,.05-5.27,.12-9.01,.09-4.08,.19-7.93,.19-7.93l-1.37-8.29s1.37,0,1.68,.42c.14,.13,.29,.25,.45,.35h0c1.79,1.21,8.1,4.92,8.1,4.92,0,0,3.49,1.39,4.32,3.38,.51,1.37,1.12,2.69,1.83,3.97,.35,1.04,.56,2.13,.62,3.23,0,0,1.2,4.9,2.14,5.73s1.61,6.1,1.61,6.1l-8.29,6.52s-.73,10.84-.89,11.26,3.03,9.8,3.03,9.8Z"/><path id="uuid-269da5a1-777b-4c85-916b-ae7ffcdce1d1" class="uuid-026e6fc1-0aec-4910-8de6-cdad2f26f34b" d="M126.38,80.55l.75,2.18-3.94,3.97c.09-4.08,.19-7.93,.19-7.93l-1.37-8.29s1.37,0,1.68,.42c.14,.13,.29,.25,.45,.35h0l3.35,9.66-1.11-.35Z"/><path id="uuid-78f37824-4fb8-40cd-9d3e-4a1778ecf192" class="uuid-f677e2e2-bfd8-407d-965d-3a0d413065b0" d="M126.07,79.93l.75,2.18-3.94,3.97c.09-4.08,.19-7.93,.19-7.93l-1.37-8.29s1.37,0,1.68,.42c.14,.13,.29,.25,.45,.35h0l3.35,9.66-1.12-.35Z"/><path id="uuid-6dbe3192-e962-4db0-8582-1115a5d688f0" class="uuid-026e6fc1-0aec-4910-8de6-cdad2f26f34b" d="M126.07,58.34c0,1.02-.16,2.04-.48,3.01-.11,.02-.22-.01-.31-.08-.22-2.57-1.22-5.01-2.87-6.98-.43-.62-.96-1.16-1.56-1.62-.61-.46-1.36-.67-2.11-.6-.85,.12-1.6,.69-2.46,.77-1.13,.09-2.15-.69-3.27-.73-.93,0-1.8,.42-2.41,1.12-.59,.7-1.03,1.51-1.29,2.39-.45,1.33-.69,2.72-.72,4.13-.01,.79-.09,1.79-.83,2.08,.11-1.18-.28-2.35-1.07-3.23l-.02-.02v-.23c-.15-5.35,4.06-9.82,9.42-9.97,5.35-.15,9.82,4.06,9.97,9.42,0,.19,0,.37,0,.56h0Z"/><path id="uuid-6598bc36-74c5-40ae-a728-9cc8452634f6" class="uuid-bcaf9e35-7d4a-48fc-b9f7-570f4f2a9375" d="M120.39,42.94c-1.47-.69-3.15-.82-4.71-.37-.79,.23-1.52,.61-2.32,.8-1.7,.41-3.68-.03-5.14,.96-.76,.63-1.36,1.43-1.75,2.33l-1.13,2.16c-.67,1.15-1.18,2.39-1.5,3.68-.32,1.31-.05,2.7,.72,3.8,.6,.76,1.49,1.24,2.14,1.96,.79,.88,1.17,2.05,1.07,3.23,.74-.28,.81-1.28,.83-2.07,.03-1.4,.27-2.79,.72-4.13,.26-.88,.7-1.69,1.29-2.39,.6-.7,1.48-1.11,2.41-1.12,1.13,.04,2.15,.82,3.27,.73,.85-.07,1.6-.65,2.46-.76,.75-.07,1.51,.14,2.11,.6,.6,.45,1.12,1,1.56,1.62,1.66,1.97,2.66,4.41,2.88,6.98,.32,.24,.78-.07,.94-.43,.1-.38,.22-.76,.37-1.13,.29-.36,.64-.67,1.03-.91,.81-.86,1.2-2.03,1.07-3.21-.14-1.16-.15-2.33-.04-3.49,.13-.7,.43-1.36,.6-2.05,.21-.69,.14-1.44-.2-2.07-.57-.88-1.76-1.05-2.8-1.13-1.18-.1-2.24,.03-2.99-.97-.35-.52-.75-1.01-1.19-1.46-.16-.15-1.67-1.08-1.67-1.15Z"/><path id="uuid-664b751f-fb6e-4fac-a8c4-c01109a8c737" class="uuid-026e6fc1-0aec-4910-8de6-cdad2f26f34b" d="M89.59,102.69l-2.96-5.47-.94,8.45c.22,1.43,.36,2.88,.42,4.33-.1,.58,2.14,5.73,2.14,5.73,0,0,7.4,13.19,10.43,13.87l10.21-7.3-2.71-3.44s-.94-.36-1.17,0c0,0-5.03-8.65-5.55-9.28-.33-.57-.48-1.22-.42-1.88,0,0-.78-.83-.52-1.61s-1.51-3.49-1.51-3.49l1.61-1.51-9.03,1.61Z"/><path id="uuid-01d8b6c1-a441-45a3-aab8-4cdb14675ca0" class="uuid-f677e2e2-bfd8-407d-965d-3a0d413065b0" d="M86.79,96.6l-.78,.62-.94,8.45c.22,1.43,.36,2.88,.42,4.33-.1,.58,2.14,5.73,2.14,5.73,0,0,7.4,13.19,10.42,13.87l10.22-7.3-2.71-3.44s-.94-.37-1.17,0c0,0-5.03-8.65-5.55-9.28-.33-.57-.48-1.22-.42-1.88,0,0-.78-.83-.52-1.61s-1.51-3.49-1.51-3.49l1.61-1.51-11.21-4.48Z"/><path id="uuid-6693588a-679b-4ed1-9e16-03be2e669349" class="uuid-026e6fc1-0aec-4910-8de6-cdad2f26f34b" d="M135.32,129.69c.57,.69,.21,3.78,.21,3.78l-1.56,2.59s.09,1.67,.1,3.92l-2.63,.82c-.82,.26-1.7-.2-1.96-1.02-.05-.17-.08-.34-.07-.51l.45-14.62,6.14,2.35c-.52,.36,.05,1.25,.05,1.25,0,0-1.3,.76-.73,1.45Z"/><path id="uuid-f919d309-6c47-4048-8b95-46061d2d49b2" class="uuid-f677e2e2-bfd8-407d-965d-3a0d413065b0" d="M135.63,129.37c.57,.69,.21,3.78,.21,3.78l-1.56,2.59s.09,1.67,.1,3.92l-2.68,.84c-.81,.25-1.66-.2-1.91-1.01-.05-.16-.07-.33-.07-.5l.46-14.67,6.14,2.35c-.52,.36,.05,1.25,.05,1.25,0,0-1.29,.76-.73,1.45Z"/><path id="uuid-f66b859d-a502-4eb6-b633-60687e3bbc8e" class="uuid-913f9f8c-1d4d-4930-ad96-de167175bb93" d="M137.66,122.4s-.42,2.66-1.46,2.82-1.51,4.3-2.55,4.16-.35-3.86-.32-4.58-1.13-3.7-.26-4.38,3.65,0,3.65,0l.93,1.98Z"/><path id="uuid-437f5af4-a459-44ba-9332-999622a5d1a7" class="uuid-026e6fc1-0aec-4910-8de6-cdad2f26f34b" d="M139.88,101.91l1.97-3.97c.4,1.52,.66,3.07,.78,4.64,0,1.61,1.09,1.77,1.09,1.77,0,0,1.2,1.42,.57,2.45-.48,1.15-.78,2.36-.89,3.6,0,0,.21,4.9-.73,5.58-.63,.61-1.03,1.43-1.13,2.3,0,0-1.72,3.07-1.67,3.8s-2.4,5.68-2.4,5.68c0,0,1.2-6.15-5.79-8.81,0,0-.05-2.09,.47-2.66s1.33-.83,.83-3.73c-.29-2.34-.34-4.7-.15-7.04,.42-1.7,.94-3.38,1.56-5.02l5.49,1.41Z"/><path id="uuid-792516f4-24e1-4b06-8d36-303f0f10451f" class="uuid-f677e2e2-bfd8-407d-965d-3a0d413065b0" d="M140.73,97.38l1.72,.57c.4,1.52,.67,3.07,.79,4.64,0,1.61,1.09,1.77,1.09,1.77,0,0,1.2,1.42,.57,2.45-.48,1.15-.78,2.36-.88,3.6,0,0,.21,4.9-.73,5.58-.64,.61-1.04,1.42-1.15,2.3,0,0-1.72,3.07-1.67,3.81s-2.4,5.68-2.4,5.68c0,0,1.2-6.15-5.79-8.81,0,0-.05-2.09,.47-2.66s1.33-.83,.83-3.73c-.29-2.34-.34-4.7-.15-7.04,.42-1.7,.94-3.38,1.56-5.02l5.74-3.13Z"/><path id="uuid-6e520d9e-1df7-426f-99ee-5a2f04d4d94e" class="uuid-026e6fc1-0aec-4910-8de6-cdad2f26f34b" d="M102.81,200.2s2.74-1.72,4.53-.47-4.53,.47-4.53,.47Z"/><path id="uuid-18290ded-af1c-4f8e-ab44-52b8f3f957d6" class="uuid-026e6fc1-0aec-4910-8de6-cdad2f26f34b" d="M124.07,194.88c1.7-.09,3.34,.6,4.46,1.88,2.03,2.19-4.46-1.88-4.46-1.88Z"/><g id="uuid-084fe0a3-cc8c-41d2-a9c6-42473fdba520" class="uuid-bd63aa05-0815-4d5e-a870-2612f7ffd003"><path id="uuid-ff756697-b74a-4aac-a028-9bbcdd2eab95" d="M127.62,57.85c-.39,.25-.74,.56-1.03,.92-.14,.37-.26,.75-.36,1.13-.16,.37-.62,.67-.94,.44-.22-2.57-1.22-5.01-2.88-6.99-.43-.62-.96-1.16-1.56-1.62-.61-.46-1.36-.67-2.12-.6-.85,.12-1.6,.69-2.46,.76-1.13,.1-2.15-.69-3.28-.73-.92,.01-1.8,.42-2.4,1.12-.59,.7-1.03,1.51-1.29,2.39-.45,1.33-.69,2.72-.72,4.13-.02,.79-.09,1.78-.82,2.07,.02,.21,.02,.42,0,.63,.74-.28,.81-1.28,.83-2.07,.03-1.4,.27-2.79,.72-4.13,.26-.88,.7-1.69,1.29-2.39,.6-.7,1.48-1.11,2.4-1.12,1.13,.04,2.15,.82,3.28,.73,.85-.07,1.6-.65,2.46-.76,.76-.07,1.51,.14,2.12,.6,.6,.45,1.12,1,1.56,1.62,1.66,1.98,2.66,4.41,2.88,6.98,.32,.23,.78-.07,.94-.43,.1-.38,.22-.76,.36-1.13,.29-.36,.64-.67,1.03-.91,.81-.86,1.2-2.03,1.07-3.21v-.11c.02,1-.37,1.97-1.07,2.69Z"/><path id="uuid-cbc0d996-45d0-478c-bd0a-8855dcbb77c2" d="M106.7,57.65c-.65-.72-1.54-1.2-2.14-1.95-.5-.67-.79-1.48-.83-2.32-.09,1.05,.2,2.09,.83,2.94,.6,.76,1.49,1.24,2.14,1.96,.63,.7,1,1.59,1.07,2.53,.09-1.15-.3-2.29-1.07-3.15Z"/><path id="uuid-e20d10dd-b896-468b-86fe-62a60d2fdea8" d="M129.25,49.09c-.17,.69-.46,1.35-.6,2.05-.08,.47-.11,.94-.09,1.42,0-.27,.04-.54,.09-.8,.14-.7,.43-1.36,.6-2.05,.1-.38,.13-.78,.09-1.17-.02,.19-.05,.37-.09,.56Z"/></g><rect id="uuid-b4d5c326-c3f4-40de-b4e5-3806429745bb" class="uuid-7beb8a50-62f2-437a-ad37-0465efa78e81" x="50.86" y="122.34" width="1.78" height="40"/><path id="uuid-e8736f5c-7e58-4614-9fd1-07f9ee913a35" class="uuid-c55d6aad-f1ea-4087-841a-0a2da6107d93" d="M63.8,162.22l-.11,1.8-.16,2.55-.07,1.06-.16,2.55-.07,1.06-.16,2.55-1.79,28.92c-.16,2.58-2.3,4.6-4.89,4.6h-9.31c-2.59,0-4.73-2.02-4.89-4.6l-1.78-28.94-.16-2.55-.07-1.06-.16-2.55-.07-1.06-.16-2.55-.11-1.8c-.08-1.41,.99-2.61,2.4-2.7,.05,0,.1,0,.16,0h19.04c1.4,.01,2.52,1.16,2.51,2.56,0,.05,0,.1,0,.16h0Z"/><path id="uuid-38ca2866-5047-4233-a220-a7eafe0a86e4" class="uuid-d931f6f8-ef39-4373-a827-cbc271078e0c" d="M63.69,164.02l-.16,2.54h-23.57l-.16-2.54h23.89Z"/><path id="uuid-2f5f82b5-3392-4c9c-a27d-eefcf071a801" class="uuid-d931f6f8-ef39-4373-a827-cbc271078e0c" d="M63.47,167.62l-.16,2.54h-23.12l-.16-2.54h23.44Z"/><path id="uuid-2740f6c5-da1c-47f1-b321-93b9b21fa9a5" class="uuid-d931f6f8-ef39-4373-a827-cbc271078e0c" d="M63.25,171.23l-.15,2.54h-22.68l-.16-2.54h22.99Z"/><path id="uuid-9208a8eb-b391-4f9f-8cf3-094a03d31816" class="uuid-f33ddb76-609e-4551-a309-6c6df678322f" d="M37.09,137.33c10.35,7.49,14.66,19.2,14.66,19.2,0,0-12.47-.43-22.82-7.91s-14.66-19.19-14.66-19.19c0,0,12.46,.42,22.81,7.91Z"/><path id="uuid-1a4bb1f1-177c-468b-afd3-eb26ffa32ea9" class="uuid-82cb5938-02fa-4a42-9a60-6110644da262" d="M14.28,129.42s12.94,7.18,17.1,13.13,20.38,13.98,20.38,13.98"/><path id="uuid-4e9ea460-346f-4fbf-9312-33b27d43326f" class="uuid-f33ddb76-609e-4551-a309-6c6df678322f" d="M43.77,122.25c3.54,2.71,6.3,6.32,7.98,10.45-9.15-.38-17.18-6.19-20.4-14.75,4.45,.31,8.73,1.79,12.42,4.31Z"/><path id="uuid-2bef5761-c889-439c-960c-b798ab133f6b" class="uuid-82cb5938-02fa-4a42-9a60-6110644da262" d="M31.36,117.94s7.04,3.91,9.3,7.15,11.1,7.61,11.1,7.61"/><path id="uuid-562e1dbf-2236-4e1c-a02c-72a5ef18a064" class="uuid-f33ddb76-609e-4551-a309-6c6df678322f" d="M59.93,132.37c-4.02,4.67-6.73,10.33-7.84,16.4,12.27-3.11,21.49-13.25,23.42-25.75-5.93,1.68-11.31,4.91-15.59,9.35Z"/><path id="uuid-23f80e5b-0cf8-4cb4-a198-d0ff5dfeaf13" class="uuid-82cb5938-02fa-4a42-9a60-6110644da262" d="M75.52,123.02s-8.43,7.29-10.57,12.31-12.86,13.44-12.86,13.44"/><path id="uuid-e6ce1667-7615-4aaf-a665-a0e70098871e" class="uuid-4b0c72d9-d97c-497a-976e-31420d9ac312" d="M297.41,129.87s-4.68-23.27-2.89-26.17c0,0,.07-2.69-.04-6.12v-.39c.31,.21,.64,.4,.98,.57,1.65,.85,3.54,1.09,5.35,.69l-1.42-1.58c-.38-.34-.64-.79-.77-1.28-.02-.48,.08-.96,.31-1.39,1.35-3.4,1.42-7.68-1.18-10.27-2.19-2.18-2.72-5-5.1-6.99-1.74-1.46-2.69-3.6-3.59-5.67-.81-1.73-1.47-3.52-1.97-5.36-.34-1.45-.48-2.95-.94-4.36-.4-1.46-1.38-2.7-2.71-3.42-.51-.18-1-.39-1.47-.65-.54-.45-1-1-1.36-1.6-2.15-2.83-9.33-1.17-12.73-.01-.92,.29-1.78,.76-2.52,1.39l.03-.05s.06-.08,.09-.13c-.37,.3-.69,.66-.95,1.06-.42,.83-.79,1.68-1.12,2.55-.5,1.01-3.27,3.81-2.08,4.95,.08,.08,.18,.14,.28,.18,.45,.19,.94,.24,1.42,.14l-.05,.12c-.41,1-.62,2.06-.61,3.14,.04,4.69,3.88,8.47,8.57,8.43,0,0,0,0,.01,0,.89,0,1.78-.14,2.63-.4,.02,.11,.04,.21,.06,.32,0,.04,.01,.09,.02,.13h0l-.15,.21s-.02-.03-.03-.04l-4.45,6.22c-.68,.48-4.6,3.31-4.82,5.44-.23,2.33-.47,5.05-.47,5.05l-.03,.58c-.39,.33-.91,.47-1.42,.38-1.39-.23-1.39,5.1-1.39,5.1,0,0-.92,.85-1.56,.11s-2.31,1.76-2.31,1.76l-10.51,.45h-.24s-.57-1.74-.57-1.74c-.13-.39-.54-.6-.93-.47-.04,.01-.09,.03-.13,.05l-.04,.02-.07,.05-.04,.03s-.04,.04-.06,.06l-.03,.04-.02,.02h0c-.13,.18-.17,.42-.1,.64l.49,1.5c-2.03,.41-4.1,1.56-2.41,4.73l-8.58-1.58,2.77,2.33,14.32,2.96c-.19,.34-.07,.83,.53,1.53,2.55,3,7.2,3.81,9.07,4.02,.49,1.11,1.11,2.16,1.84,3.12l-.16,2.98s-4.73,22.74-5.6,23.9c.44-.5,.84-1.02,1.2-1.58-1.37,4.67-3.3,11.07-3.8,12.03-.81,1.53-1.56,7.72-.64,8.12,.75,.1,1.51,.09,2.25-.02v.51l-.05,19.44s.23,11.92-.41,13.06c-.46,1.12-.73,2.31-.81,3.52,0,0-2.55,4.7-4.57,6.59-.01,.01-.03,.03-.04,.04l-.06-.44s-2.43,3.07-7.8,2.89c0,0-3.23,2.1,1.56,2.22s10.92-.17,10.92-.17c0,0,4.28-6.52,7.86-5.67v4.94h1.1v-5.02c1.03-.68,1.73-1.74,1.95-2.95,.19-1.26-.3-2.52-1.28-3.32-.44-.4-.69-.96-.7-1.55l-.04,.03c0-.1-.02-.2-.04-.31-.31-2.55-.71-7.81,.68-11.71,1.91-5.34,2.48-12.77,1.1-17.2-.45-1.41-.81-2.85-1.1-4.31-.03-.18-.07-.36-.09-.52,.95,.13,1.89,.32,2.81,.57,3.22,.89,10.25,1.05,16.26,1,.01,.16,.03,.34,.05,.51,.11,1.2,.33,2.39,.67,3.55,.75,2.27,1.1,12.26,1.1,12.26,0,0,.97,8.22,.44,11.56-.28,1.86-.57,3.73-.73,5.6v.04s-1.59,4.53-2.76,7c-.03,.06-.06,.12-.09,.18-.31,.03-.62,.1-.91,.2,0,0-1.56,3.12-3.12,3.63s-1.04,2.21,2.48,1.59,8.84-1.13,8.84-1.13l.23-3.18,1.08-1.35-.28,3.17,1.15-.23-.15-3.86,1.77-2.22s2.14-1.9-1.04-5.65v.08c-.03-.05-.07-.11-.1-.16v-.02c-.53-.82-.95-2.34-.18-5.04,1.39-4.88,2.2-9.31,2.2-9.31,0,0,3.1-11.86-.63-17.48h.16c-.38-.79-.65-1.63-.8-2.49-.02-.1-.04-.21-.05-.32,2.64-.08,5.23-.67,7.64-1.74,0,0-1.33-28.17-2.43-32.65Zm-35-19.64v.06l-.57,.03,.57-.09Zm-1.94,.27c-.09,.02-.18,.06-.26,.12-.24,.34-.4,.75-.45,1.17l-.88-.2s-.62-.13-1.51-.28l-.42-.42c1.16-.1,2.37-.24,3.52-.38h0Z"/><path id="uuid-1a1a59d3-d3df-4a5e-a087-5af95d70523d" class="uuid-40407c94-7320-4d28-b150-8f315f423c64" d="M289.71,206.89l-.34,4.02,1.13-.23-.17-4.35-.62,.57Z"/><path id="uuid-cc0efead-6a24-4c01-960e-6c9ccbdf9e81" class="uuid-bfa577c2-81dc-4be9-8c9d-c6b99d6517d2" d="M263.92,187.82c-1.36,3.88-.98,9.12-.67,11.67,.11,.94,.22,1.51,.22,1.51,0,0-2.04,4.64-2.21,4.82s-6,3.73-6,3.73l-4.07,2.38s-4.13-1.81-2.15-2.43c.4-.16,.77-.41,1.07-.73,1.98-1.88,4.47-6.57,4.47-6.57,.08-1.2,.34-2.39,.79-3.51,.62-1.13,.4-13.01,.4-13.01l.05-19.37v-2.52l7.75,.06c.05,.86,.16,1.71,.33,2.55,.28,1.45,.64,2.89,1.08,4.3,1.36,4.41,.8,11.81-1.07,17.13Z"/><path id="uuid-7ef4ebdf-544c-487e-9f30-f0695b34725b" class="uuid-026e6fc1-0aec-4910-8de6-cdad2f26f34b" d="M263.46,201s-2.04,4.64-2.21,4.82-6,3.73-6,3.73l-4.07,2.37s-4.13-1.81-2.15-2.43c.4-.16,.77-.41,1.07-.73l.18,1.24,1.36-.06,11.62-10.45c.1,.93,.21,1.51,.21,1.51Z"/><path id="uuid-a290f1ec-909e-4d30-aacb-4b5010d6a0c3" class="uuid-40407c94-7320-4d28-b150-8f315f423c64" d="M263.32,199.76l-11.68,10.52-1.36,.06-.28-1.98s-2.38,3.05-7.65,2.89c0,0-3.17,2.09,1.53,2.21s10.69-.17,10.69-.17c0,0,4.19-6.52,7.69-5.67v4.92h1.08v-4.97c1.01-.68,1.7-1.75,1.91-2.95,.19-1.25-.28-2.5-1.25-3.31-.43-.4-.67-.96-.67-1.55Z"/><path id="uuid-26287b28-377d-45e0-9821-c5d88f4000ad" class="uuid-bfa577c2-81dc-4be9-8c9d-c6b99d6517d2" d="M290.79,193.88c-.75,2.69-.34,4.21,.17,5.02v.02c.66,1,1.12,2.13,1.35,3.31l.04,.26-5.32,7.75-2.89,1.13s-4.64-1.58-3.79-2.04c.41-.44,.72-.95,.92-1.51,1.13-2.45,2.7-6.97,2.7-6.97v-.04c.16-1.87,.42-3.73,.71-5.58,.52-3.34-.43-11.52-.43-11.52,0,0-.34-9.95-1.08-12.22-.33-1.15-.55-2.33-.66-3.53-.15-1.42-.19-2.58-.19-2.58,0,0,3.05-4.25,8.65,.34,.45,.37,.84,.79,1.17,1.27,3.87,5.5,.75,17.62,.75,17.62,0,0-.78,4.41-2.14,9.27Z"/><path id="uuid-208eee68-da81-42d1-be3d-bdbd9b4176cb" class="uuid-026e6fc1-0aec-4910-8de6-cdad2f26f34b" d="M292.37,202.48l-5.32,7.75-2.89,1.13s-4.64-1.58-3.79-2.04c.41-.44,.72-.95,.92-1.51,1.24,.07,2.37,.77,2.98,1.85l2.49-.4s3.28-6.45,4.02-6.84,.11-2.94,.11-2.94v-.65s.04,.05,.06,.07v.02c.66,1,1.12,2.13,1.35,3.31l.05,.25Z"/><path id="uuid-89b88d9e-7ce9-4f3d-913d-b55a13b9e9ce" class="uuid-40407c94-7320-4d28-b150-8f315f423c64" d="M284.45,209.83c-.8-1.48-2.54-2.17-4.13-1.64,0,0-1.53,3.12-3.05,3.62s-1.02,2.2,2.43,1.58,8.65-1.13,8.65-1.13l.23-3.17,3.51-4.47s2.09-1.9-1.02-5.63v.65s.62,2.55-.11,2.94-4.01,6.85-4.01,6.85l-2.5,.4Z"/><path id="uuid-aa69b0e3-ddbb-42e8-8f80-35eb97ce991d" class="uuid-026e6fc1-0aec-4910-8de6-cdad2f26f34b" d="M263.58,163.84c.05,.86,.16,1.71,.33,2.55-2.69-.34-5.4-.36-8.09-.08v-2.52l7.76,.06Z"/><path id="uuid-09308a0e-bf0d-4b82-8c98-7829e1d9a0d2" class="uuid-026e6fc1-0aec-4910-8de6-cdad2f26f34b" d="M292.48,167.68s-4.53,.22-9.94,.27c-.15-1.42-.19-2.58-.19-2.58,0,0,3.05-4.25,8.65,.34,.45,.37,.84,.79,1.17,1.27,.09,.24,.19,.48,.3,.71Z"/><path id="uuid-40a9ca04-96f4-4935-bede-55484857cea6" class="uuid-40407c94-7320-4d28-b150-8f315f423c64" d="M292.48,167.17s-19.86,.96-25.91-.74-12.05-.23-12.96-.62-.17-6.56,.62-8.09,5.15-16.97,5.15-16.97l4.19-21.84,4.41-1.22,.31-.09,7.69-2.12,5.63-1.56s11.2,43.73,10.24,46.96c-.35,1.23-.4,2.53-.16,3.79,.15,.86,.41,1.7,.79,2.49Z"/><path id="uuid-ce6a79ba-6267-46a6-aef7-383fa3cf1e4f" class="uuid-71d67c7e-7152-4b4b-b3a2-2b6bbd490f11" d="M248.98,103.98s-3.97,4.25-.96,6.62,4.98,.23,4.98,.23l-4.02-6.85Z"/><path id="uuid-7eaf3c76-56f5-406a-ad00-b72ad5cfb7e7" class="uuid-026e6fc1-0aec-4910-8de6-cdad2f26f34b" d="M248.98,103.98s-3.97,4.25-.96,6.62,4.98,.23,4.98,.23l-4.02-6.85Z"/><path id="uuid-32667c23-bac4-47cb-bdb7-751aa034442a" class="uuid-bfa577c2-81dc-4be9-8c9d-c6b99d6517d2" d="M281.03,76.04s-.47,.44-1.16,1.09c-1,.93-2.47,2.3-3.78,3.44-1.81,1.58-3.31,2.74-2.77,1.75s.43-2.71,.17-4.32c-.02-.11-.04-.21-.06-.32-.22-1.18-.51-2.35-.88-3.5,1.41-1.85,2.93-3.61,4.55-5.28,.6-.57,1.03-.8,1.05-.4,.19,1.01,.5,2,.92,2.94,.01,.04,.03,.08,.04,.12,.33,.85,.7,1.72,1.03,2.48,.5,1.15,.9,2.02,.9,2.02Z"/><path id="uuid-00ef17c9-1d37-40d1-af03-f6538a2a5072" class="uuid-026e6fc1-0aec-4910-8de6-cdad2f26f34b" d="M279.11,71.55c-.56,3.02-2.72,5.49-5.63,6.45-.23-1.29-.54-2.57-.93-3.82,0,0,5.52-7.13,5.6-5.68,.2,1.05,.52,2.08,.97,3.06Z"/><path id="uuid-7f6c297d-f29d-4197-85ef-c82825d685da" class="uuid-026e6fc1-0aec-4910-8de6-cdad2f26f34b" d="M272.92,79.9l.71-1.01s.47,2.89,2.21,1.61,1.83,9.58,1.83,9.58l-1.87,27.92-13.49-.81,.38-13.49,1.53-6.8,3.78-9.89,2.24-3.27,2.68-3.84Z"/><path id="uuid-2d10fd40-c622-4d28-bf5c-92c53ad06545" class="uuid-40407c94-7320-4d28-b150-8f315f423c64" d="M277.68,90.25l-1.7,25.24-.18,2.67-7.52-.45-.28-.02-5.67-.34,.38-13.49,1.53-6.8,3.78-9.89,2.25-3.27,2.67-3.86,.71-1s.47,2.89,2.21,1.61l.04-.02h0c1.7-1.08,1.78,9.61,1.78,9.61Z"/><path id="uuid-14c46f30-41d1-443c-ba89-461e876dc18d" class="uuid-f677e2e2-bfd8-407d-965d-3a0d413065b0" d="M264.42,94.71c-.36,.78-1.18,1.26-2.04,1.19-1.36-.23-1.36,5.1-1.36,5.1,0,0-.9,.85-1.53,.11s-2.27,1.75-2.27,1.75l-10.3,.45s4.58,2.09,3.68,8.43c0,0,15.56-.96,16.07-2.43s-2.26-14.6-2.26-14.6Z"/><path id="uuid-ad8882cc-1b3c-4f31-a798-3a15a211b634" class="uuid-2bbfd61e-8d0f-4fa6-9f7f-38f9bded8a53" d="M264.42,94.71c-.36,.78-1.18,1.26-2.04,1.19-1.36-.23-1.36,5.1-1.36,5.1,0,0-.9,.85-1.53,.11s-2.27,1.75-2.27,1.75l-10.3,.45s4.58,2.09,3.68,8.43c0,0,15.56-.96,16.07-2.43s-2.26-14.6-2.26-14.6Z"/><path id="uuid-c1fdf688-cc18-4718-ad1d-ff76d605fe8b" class="uuid-f677e2e2-bfd8-407d-965d-3a0d413065b0" d="M234.5,106.65l2.72,2.32,22.35,4.7-2.77-2.83-22.29-4.19Z"/><path id="uuid-70c8c23c-6f88-4013-bd6d-84d34e0d4155" class="uuid-f677e2e2-bfd8-407d-965d-3a0d413065b0" d="M272.97,80.79c-.89,1.95-1.66,3.96-2.32,6-.74,2.11-1.36,3.97-1.36,3.97,0,0-1.44,9.39-2.18,11.09s-.34,8.32-.34,8.32l-2.75,16.35s-1.24,8.43-3.16,13.46c-.92,2.67-2.3,5.15-4.07,7.35,.85-1.15,5.48-23.8,5.48-23.8l1.53-28.57s.22-2.71,.45-5.04,4.82-5.49,4.82-5.49l4.43-6.29c.44,.6,.15,1.63-.53,2.65Z"/><path id="uuid-3d205e4c-dc5f-418e-8ad9-64352c94e052" class="uuid-bfa577c2-81dc-4be9-8c9d-c6b99d6517d2" d="M261.43,117.51s-6.52-.28-9.67-4.08,7.3-1.51,7.3-1.51l2.72,.62-.34,4.97Z"/><path id="uuid-e25cc394-3da5-48b8-853c-ea5cc1eede53" class="uuid-026e6fc1-0aec-4910-8de6-cdad2f26f34b" d="M291.86,160.9c-.35,1.23-.4,2.53-.16,3.79-4.95,.2-9.9-.27-14.72-1.42-1.61,1.23-3.34,2.31-5.15,3.23l-2.03-25.22c-1.3-3.4-1.81-21.21-1.81-21.21,0,0,.12-.93,.28-2.33,0-.03,0-.07,.01-.1,.51-3.9,1.51-11.23,2.01-12.22,.68-1.36-2.09-4.98-2.09-4.98l1.26-10.75,.15-1.3c2.66-1.19,4.7-4.98,4.7-4.98l1.56-2.74h0c1.7-1.09,1.79,9.6,1.79,9.6l-1.7,25.24,5.63-1.56s11.22,43.72,10.26,46.94Z"/><path id="uuid-318df982-b63b-419d-bb6d-3e252e2646f9" class="uuid-f677e2e2-bfd8-407d-965d-3a0d413065b0" d="M299.16,162.64c-7.75,3.85-21.84,.28-21.84,.28-1.61,1.23-3.34,2.31-5.15,3.23l-2.04-25.22c-1.3-3.4-1.81-21.21-1.81-21.21,0,0,1.64-13.29,2.32-14.65,.17-.54,.12-1.12-.13-1.62-1.16-3.02-1.58-6.27-1.24-9.49l.54-4.62,.15-1.3c2.66-1.19,4.7-4.98,4.7-4.98l1.42-2.48,2.61-4.57,1.23-2.17,.21,.19,1.6,1.45,1.7,1.42c2.22,1.87,6.05,5.16,8.03,7.18,1.74,1.77,2.29,8.67,2.45,13.87,.1,3.42,.04,6.1,.04,6.1-1.75,2.89,2.83,26.07,2.83,26.07,1.07,4.48,2.37,32.53,2.37,32.53Z"/><path id="uuid-61ffeb3e-dfb6-452d-b3ff-0793169df6b4" class="uuid-2bbfd61e-8d0f-4fa6-9f7f-38f9bded8a53" d="M284.28,83s-5.32,10.12-4.7,13.97,2.38,8.2,1.53,9.22c-.59,.78-1.51,1.24-2.49,1.24-1.16,.36-2.23,.98-3.12,1.81,0,.17-2.09,.17-3.97,.96-1.5,.56-3.06,.98-4.64,1.24,0,0-5.38-.17-5.89,.34s-1.02,3.56,.06,6,2.27,4.25,3.17,4.58,6.62-1.58,11.26-2.04,9.67-4.13,9.67-4.13c0,0,5.55-1.98,6.52-5.32s-1.19-21.67-1.19-21.67c0,0-1.63-8.55-6.22-6.23Z"/><path id="uuid-a7c5dba2-2e1c-4cf7-8f7d-395e3bffa4d7" class="uuid-2bbfd61e-8d0f-4fa6-9f7f-38f9bded8a53" d="M283.6,82.15s-5.32,10.13-4.7,13.97,2.38,8.2,1.53,9.22c-.59,.78-1.51,1.24-2.49,1.24-1.16,.36-2.23,.98-3.12,1.81,0,.17-2.09,.17-3.97,.96-1.5,.56-3.06,.98-4.64,1.24,0,0-5.38-.17-5.88,.34s-1.02,3.57,.06,6,2.27,4.25,3.17,4.58,6.62-1.58,11.26-2.04,9.67-4.13,9.67-4.13c0,0,5.54-1.98,6.5-5.32s-1.19-21.67-1.19-21.67c0,0-1.62-8.54-6.2-6.23Z"/><path id="uuid-4b857c2e-8b37-4009-a762-af471c919d4e" class="uuid-f677e2e2-bfd8-407d-965d-3a0d413065b0" d="M284.11,82.49s-5.32,10.13-4.7,13.97,2.38,8.2,1.53,9.22c-.59,.78-1.51,1.25-2.49,1.25-1.16,.36-2.22,.98-3.12,1.81,0,.17-2.09,.17-3.97,.96-1.5,.56-3.06,.98-4.64,1.24,0,0-5.38-.17-5.89,.34s-1.02,3.57,.06,6,2.27,4.25,3.17,4.58,6.62-1.58,11.26-2.04,9.67-4.13,9.67-4.13c0,0,5.54-1.98,6.52-5.32s-1.17-21.67-1.17-21.67c0,0-1.65-8.53-6.23-6.23Z"/><path id="uuid-dd9a5acf-b458-4797-868f-94074812747a" class="uuid-026e6fc1-0aec-4910-8de6-cdad2f26f34b" d="M284,109.65s-4.25-.85-2.77,.57,1.47,2.66,3.28,2.6-.51-3.17-.51-3.17Z"/><path id="uuid-70b17523-eb3c-439f-8321-063558b21767" class="uuid-026e6fc1-0aec-4910-8de6-cdad2f26f34b" d="M291.18,140.14s-1.92,1.3,1.75,4.3-1.75-4.3-1.75-4.3Z"/><path id="uuid-3be5cb84-8049-4879-b427-0adc3a1d3756" class="uuid-026e6fc1-0aec-4910-8de6-cdad2f26f34b" d="M287.51,150.83c0,.17-.68,6.23,1.86,7.75s-1.86-7.75-1.86-7.75Z"/><path id="uuid-07a42f10-7d5c-4964-be60-67d26406b938" class="uuid-bfa577c2-81dc-4be9-8c9d-c6b99d6517d2" d="M247.11,103.3c-2.05,.07-6.48,.7-4.18,4.98,2.03,3.79,5.45,1.26,7.37-.67-.47-1.79-1.61-3.34-3.18-4.32Z"/><path id="uuid-bcf45234-2a81-4f23-92a7-802eab0e519a" class="uuid-bfa577c2-81dc-4be9-8c9d-c6b99d6517d2" d="M250.32,107.59l.09-.09-.09,.09Z"/><path id="uuid-d6f38c4f-fa0b-4bc9-bf22-e1e1710185c6" class="uuid-026e6fc1-0aec-4910-8de6-cdad2f26f34b" d="M283.43,77.07c-2.18,1.49-4,2.74-4.36,3-.97,.72-2.83,4.96-4.03,7.13-.96,1.74-4.06,2.19-5.23,2.3l.15-1.3c2.66-1.19,4.7-4.98,4.7-4.98l5.26-9.22,1.81,1.65,1.7,1.43Z"/><path id="uuid-051b7479-7559-46b3-bbab-206f1c85e04d" class="uuid-ec28c6fd-401a-4d51-a28a-91de38ee4862" d="M283.43,76.9c-2.18,1.49-4,2.74-4.36,3.01-.97,.72-2.83,4.96-4.03,7.13-.96,1.74-4.06,2.19-5.23,2.3l.15-1.3c2.66-1.19,4.7-4.98,4.7-4.98l5.26-9.22,1.81,1.64s.68,.56,1.7,1.42Z"/><path id="uuid-ac7b9490-8519-4681-b764-4f16428099b0" class="uuid-bfa577c2-81dc-4be9-8c9d-c6b99d6517d2" d="M279.25,69.68c0,4.64-3.76,8.4-8.4,8.4-4.64,0-8.4-3.76-8.4-8.4s3.76-8.4,8.4-8.4c.42,0,.84,.03,1.25,.09,4.11,.62,7.15,4.15,7.15,8.31Z"/><path id="uuid-51e29de8-57b0-4b5d-a9cd-4d26f000a88c" class="uuid-026e6fc1-0aec-4910-8de6-cdad2f26f34b" d="M293.91,97.94c-1.15-.71-2.09-1.71-2.71-2.91-.34-.99-.89-1.9-1.6-2.68-.79-.51-1.68-.85-2.61-1.01-3.08-.85-5.3-3.53-5.57-6.71-.04-1.46,.41-2.92,.2-4.37-.12-.82-.44-1.6-.95-2.25-.25-.31-.52-.61-.82-.88-.4-.37-.81-.74-1.18-1.13-.23-.25-.43-.52-.59-.81-.13-.24-.24-.49-.33-.75-.57-1.73-.05-3.79-.67-5.55l-.03-.1c-.18-.66-.71-1.16-1.38-1.3-.67-.05-1.23,.5-1.87,.75-1.33,.52-2.76-.36-3.87-1.26s-2.36-1.92-3.77-1.72c-.88,.27-1.73,.64-2.53,1.1-.19,.08-.4,.13-.6,.17,1.72-4.31,6.61-6.4,10.92-4.68,3.19,1.28,5.29,4.37,5.28,7.81,0,.59-.06,1.18-.18,1.75,.01,.04,.03,.08,.04,.12,.33,.85,.7,1.72,1.03,2.48l1.6,1.45,1.7,1.42c2.22,1.87,6.05,5.16,8.03,7.18,1.75,1.78,2.3,8.68,2.46,13.87Z"/><path id="uuid-9b8d782b-5c35-49a6-98f5-5106317c089e" class="uuid-71e6e451-0629-438f-bfab-bd0e69ba026f" d="M263.54,61.2c.41-.83,.61-1.75,1.09-2.53,.79-1.11,1.92-1.92,3.23-2.3,3.33-1.15,10.36-2.81,12.47,0,.35,.6,.8,1.14,1.33,1.59,.46,.25,.94,.47,1.44,.65,1.31,.73,2.27,1.95,2.65,3.4,.46,1.4,.59,2.9,.93,4.34,.48,1.84,1.13,3.63,1.93,5.35,.88,2.06,1.82,4.19,3.52,5.64,2.32,1.98,2.83,4.79,4.99,6.97,2.55,2.58,2.47,6.85,1.15,10.23-.22,.43-.32,.9-.3,1.38,.13,.49,.39,.93,.75,1.28l1.39,1.57c-3.42,.74-6.91-.87-8.57-3.95-.34-.99-.89-1.9-1.6-2.68-.79-.5-1.68-.84-2.6-1-3.08-.86-5.3-3.53-5.57-6.71-.04-1.46,.41-2.92,.2-4.36-.11-.83-.44-1.61-.95-2.27-.78-1.02-1.96-1.7-2.59-2.83-1.07-1.9-.26-4.36-1.03-6.39-.18-.66-.71-1.16-1.38-1.3-.67-.05-1.23,.5-1.87,.75-1.33,.52-2.76-.36-3.87-1.26s-2.36-1.92-3.77-1.72c-.88,.27-1.73,.64-2.53,1.1-.64,.24-1.92,.46-2.48-.07-1.17-1.08,1.55-3.88,2.04-4.89Z"/><path id="uuid-ad770b7d-2581-4eb2-aae4-ebd3602c3470" class="uuid-026e6fc1-0aec-4910-8de6-cdad2f26f34b" d="M292.33,93.89c-.34-.99-.89-1.9-1.6-2.67-.79-.51-1.68-.85-2.61-1.01-3.08-.86-5.3-3.53-5.57-6.71-.04-1.46,.41-2.92,.21-4.37-.12-.82-.45-1.6-.95-2.25-.78-1.02-1.96-1.7-2.59-2.83-1.07-1.89-.26-4.36-1.03-6.39-.18-.66-.71-1.16-1.38-1.3-.66-.05-1.24,.51-1.87,.75-1.33,.52-2.76-.36-3.87-1.26s-2.36-1.92-3.77-1.72c-.88,.27-1.73,.64-2.53,1.1-.64,.24-1.92,.46-2.48-.07-1.17-1.13,1.55-3.92,2.04-4.93,.32-.86,.69-1.71,1.09-2.53,.03-.04,.05-.08,.08-.13-.36,.3-.68,.66-.93,1.06-.48,.78-.69,1.7-1.09,2.53-.49,1-3.21,3.8-2.04,4.93,.57,.54,1.84,.32,2.48,.07,.8-.47,1.64-.83,2.53-1.1,1.42-.2,2.66,.82,3.77,1.72s2.55,1.77,3.87,1.26c.64-.25,1.19-.8,1.87-.75,.67,.14,1.2,.64,1.38,1.3,.77,2.04-.04,4.5,1.03,6.39,.64,1.11,1.81,1.81,2.59,2.83,.51,.66,.83,1.44,.95,2.27,.21,1.45-.25,2.9-.2,4.36,.27,3.18,2.5,5.86,5.57,6.71,.92,.16,1.81,.5,2.6,1,.72,.77,1.26,1.68,1.6,2.68,1.66,3.08,5.15,4.69,8.57,3.95l-.66-.74c-2.94,.03-5.66-1.57-7.06-4.15Z"/><path id="uuid-8bc48fc0-3a1b-40cb-9b02-ca888db57795" class="uuid-026e6fc1-0aec-4910-8de6-cdad2f26f34b" d="M272.8,80.96c-.89,1.95-1.66,3.96-2.32,6-.83-.32-1.58-2.38-1.58-2.38l4.43-6.3c.45,.63,.16,1.66-.52,2.68Z"/><path id="uuid-b3fc607f-22e5-49f1-a34b-6b77fad1d91a" class="uuid-ec28c6fd-401a-4d51-a28a-91de38ee4862" d="M272.97,80.79c-.89,1.95-1.66,3.96-2.32,6-.83-.32-1.58-2.38-1.58-2.38l4.43-6.29c.45,.62,.16,1.66-.52,2.68Z"/><path id="uuid-f74d654a-3463-465e-a6f9-f6cd834afd85" class="uuid-e1545491-cc31-4899-ae57-9af3ec08ee08" d="M247.23,109.74l-2.45-7.74c-.12-.38,.09-.79,.47-.91,0,0,0,0,0,0h0c.38-.12,.79,.09,.91,.47l2.45,7.73-.24,1.62-1.13-1.17Z"/><path id="uuid-e194b6d4-d281-4ee0-bb64-058b0facd943" class="uuid-c4a71174-52c0-4d01-9f7f-4d3434213ff6" d="M245.01,101.32h0c.38-.12,.79,.09,.91,.47l2.45,7.73-.18,1.21,.18,.19,.24-1.62-2.47-7.73c-.12-.38-.53-.59-.91-.47h0c-.15,.05-.29,.15-.38,.28,.05-.03,.1-.05,.15-.07Z"/><path id="uuid-e001b417-53d1-4167-8eda-4f31d143d414" class="uuid-1c7cc438-9fc8-41bf-9bcc-8dcff441e058" d="M247.23,109.74l1.38-.44-.2,1.33-.04,.29-.4-.42-.73-.76Z"/><path id="uuid-cbf2c51e-0bfd-4ae7-8a87-846ab87d5824" class="uuid-1d16c26f-7f02-4ecb-9cea-50826d16828d" d="M247.96,110.5s.05-.06,.09-.07c.04-.03,.09-.03,.13,0,.02,.02,.04,.05,.05,.08,.04,.06,.1,.11,.18,.12l-.04,.28-.4-.4Z"/><path id="uuid-6cc8e1b4-9321-4007-b954-387511274205" class="uuid-bfa577c2-81dc-4be9-8c9d-c6b99d6517d2" d="M244.76,104.75s4.92-.03,3.76,2.07c-.59,1.19-1.68,2.05-2.97,2.35l-.79-4.41Z"/><path id="uuid-cd53ef13-cdbe-432a-a5c2-5c85efb1179c" class="uuid-f33ddb76-609e-4551-a309-6c6df678322f" d="M214.15,10.77h-.21c-8.18,.04-15.79,4.21-20.23,11.08-4.44-6.87-12.05-11.04-20.23-11.08h-.21c-13.21,.13-23.85,10.86-23.86,24.07,0,7.88,3.45,19.06,10.18,28.26,12.82,17.53,34.12,32.87,34.12,32.87,0,0,21.3-15.34,34.12-32.87,6.73-9.2,10.18-20.38,10.18-28.26,0-13.21-10.65-23.94-23.85-24.07Zm-3.04,53.68c-1.97,0-3.73-1.23-4.44-3.07h-5.06c-.68,0-1.28-.44-1.5-1.09l-1.55-4.68-4.91,17.17c-.2,.68-.82,1.15-1.53,1.15h-.1c-.74-.04-1.35-.58-1.47-1.32l-5.06-30.46-3.7,18.02c-.17,.71-.81,1.2-1.53,1.2h-7.12c-.87,.04-1.61-.64-1.65-1.51-.04-.87,.64-1.61,1.51-1.65,.05,0,.09,0,.14,0h5.87l5.24-24.23c.21-.85,1.06-1.38,1.92-1.17,.63,.15,1.1,.67,1.2,1.3l5.17,31.07,4.4-15.36c.19-.66,.79-1.13,1.48-1.13h.03c.68,0,1.29,.44,1.5,1.09l2.81,8.45h3.86c.82-2.49,3.5-3.85,6-3.03,2.49,.82,3.85,3.5,3.03,6-.64,1.95-2.46,3.26-4.51,3.26h-.01Z"/></g></svg>